<?xml version="1.0"?>
<svg xmlns="http://www.w3.org/2000/svg" version="1.1" id="Capa_1" x="0px" y="0px" viewBox="0 0 310.523 310.523" style="enable-background:new 0 0 310.523 310.523;" xml:space="preserve" width="512px" height="512px"><g><path d="M155.285,310.523c-13.102,0-23.76-10.658-23.76-23.759v-17.029c-21.521-3.079-40.885-10.768-53.929-21.542  c-13.563-11.101-13.089-28.818-5.742-39.842l0.439-0.66l0.561-0.561c6.345-6.345,13.062-9.563,19.963-9.563  c5.792,0,11.52,2.256,17.027,6.706c10.409,6.994,30.246,14.011,48.37,14.011c18.559-0.001,28.883-6.979,30.701-20.743  c-1.615-11.341-17.232-16.517-42.495-23.594c-17.8-4.987-37.975-10.639-53.03-21.819c-18.064-13.414-25.844-32.85-23.122-57.768  c1.98-16.739,10.113-31.204,23.527-41.905c10.15-8.097,23.088-13.905,37.729-16.982V23.759C131.525,10.658,142.183,0,155.285,0  c13.102,0,23.76,10.658,23.76,23.759v11.439c15.271,2.973,28.82,8.786,39.501,16.992l0.157,0.124  c9.903,8.012,13.547,19.207,9.747,29.948c-3.618,10.225-13.088,17.094-23.563,17.094c-5.168,0-10.279-1.713-14.799-4.957  c-9.857-6.185-25.313-10.331-38.558-10.331c-11.093,0-24.854,2.709-27.554,15.589c-2.065,13.16,11.102,18.242,41.521,26.658  c17.173,4.751,36.638,10.136,51.708,20.286c18.192,12.253,27.12,29.773,26.533,52.074c-0.988,36.05-25.011,61.794-64.694,69.908  v18.18C179.044,299.865,168.386,310.523,155.285,310.523z M84.783,217.845c-2.654,4.583-3.416,12.758,2.975,17.988  c12.108,10.001,31.235,16.854,52.506,18.824l7.262,0.673v31.434c0,4.278,3.482,7.759,7.76,7.759c4.278,0,7.76-3.481,7.76-7.759  v-31.801l6.832-1.008c17.009-2.509,56.696-12.961,57.868-55.708c0.924-35.118-26.984-45.573-66.513-56.509  c-14.064-3.891-27.349-7.566-37.139-13.414c-12.718-7.596-18.062-18.163-15.882-31.405l0.052-0.285  c3.668-18.153,19.438-28.564,43.267-28.564c16.368,0,34.948,5.083,47.334,12.95l0.441,0.302c1.843,1.351,3.721,2.036,5.581,2.036  c3.595,0,7.161-2.705,8.479-6.432c1.473-4.163-0.179-8.46-4.651-12.111c-9.906-7.582-23.658-12.871-38.735-14.897l-6.934-0.932  V23.759c0-4.278-3.482-7.759-7.76-7.759c-4.278,0-7.76,3.481-7.76,7.759v25.318l-6.834,1.007  c-31.273,4.609-51.656,21.837-54.525,46.085c-4.365,39.971,22.732,50.649,64.571,62.371c25.62,7.178,52.112,14.6,54.2,38.324  l0.068,0.772l-0.081,0.771c-2.413,22.798-19.438,35.874-46.709,35.876c-19.306,0.001-43.018-6.981-57.662-16.979l-0.576-0.433  c-2.662-2.193-5.07-3.305-7.16-3.305C90.472,213.568,87.772,215.006,84.783,217.845z"  class="active-path"  fill="#FFAA33"/></g> </svg>
