<?xml version="1.0" encoding="iso-8859-1"?>
<!DOCTYPE svg PUBLIC "-//W3C//DTD SVG 1.1//EN" "http://www.w3.org/Graphics/SVG/1.1/DTD/svg11.dtd">
<svg xmlns="http://www.w3.org/2000/svg" version="1.1" id="Capa_1" x="0px" y="0px" viewBox="0 0 280.861 280.861"
	 style="enable-background:new 0 0 280.861 280.861;" xml:space="preserve" width="512px" height="512px">
<g>
	<path d="M0,14.805V59.25h16.775v127.968c0,11.617,10.684,21.068,23.817,21.068h91.838h0h0l0,11.299   c-9.27,3.299-15.926,12.158-15.926,22.545c0,13.192,10.733,23.925,23.926,23.925c13.192,0,23.925-10.733,23.925-23.925   c0-10.387-6.656-19.246-15.925-22.545l0-11.299h91.838c13.133,0,23.817-9.451,23.817-21.068V59.25h16.776V14.805H0z    M140.43,250.055c-4.37,0-7.926-3.555-7.926-7.925s3.556-7.925,7.926-7.925c4.37,0,7.925,3.555,7.925,7.925   S144.8,250.055,140.43,250.055z M248.085,187.218c0,2.398-3.211,5.068-7.817,5.068H40.592c-4.606,0-7.817-2.671-7.817-5.068V59.25   h215.309V187.218z" fill="#ffaa33"/>
	<path d="M60.487,173.814h162.967c1.257,0,2.276-1.019,2.276-2.276v-10.014c0-1.257-1.019-2.276-2.276-2.276h-18.318v-28.085   c0-2.348-1.921-4.269-4.27-4.269h-10.787c-2.348,0-4.269,1.921-4.269,4.269v28.085h-8.291v-48.586c0-2.348-1.921-4.27-4.27-4.27   h-10.787c-2.348,0-4.269,1.921-4.269,4.27v48.586h-8.29V82.973c0-2.976-2.435-5.41-5.41-5.41h-8.506c-2.975,0-5.41,2.435-5.41,5.41   v76.275h-8.29v-28.464c0-1.565-1.28-2.845-2.845-2.845h-13.637c-1.565,0-2.845,1.28-2.845,2.845v28.464h-8.29v-57.015   c0-2.976-2.435-5.41-5.41-5.41h-8.506c-2.976,0-5.41,2.434-5.41,5.41v57.015H60.487c-1.257,0-2.276,1.019-2.276,2.276v10.014   C58.212,172.795,59.231,173.814,60.487,173.814z" fill="#ffaa33"/>
</g>
</svg>
