<?xml version="1.0" encoding="iso-8859-1"?>
<!DOCTYPE svg PUBLIC "-//W3C//DTD SVG 1.1//EN" "http://www.w3.org/Graphics/SVG/1.1/DTD/svg11.dtd">
<svg xmlns="http://www.w3.org/2000/svg" version="1.1" id="Capa_1" x="0px" y="0px" viewBox="0 0 282.009 282.009"
	 style="enable-background:new 0 0 282.009 282.009;" xml:space="preserve" width="512px" height="512px">
<g>
	<path d="M165.928,142.955l-16.924,7.319v-46.024c0-4.418-3.582-8-8-8c-4.418,0-8,3.582-8,8v58.201c0,2.694,1.355,5.206,3.607,6.686   c1.324,0.87,2.855,1.314,4.394,1.314c1.076,0,2.157-0.217,3.175-0.657l28.1-12.153c4.055-1.754,5.921-6.463,4.167-10.519   C174.692,143.066,169.984,141.2,165.928,142.955z" fill="#ffaa33"/>
	<path d="M141.004,70.37c-50.772,0-92.079,41.307-92.079,92.08c0,50.773,41.307,92.079,92.079,92.079   c50.773,0,92.079-41.306,92.079-92.079C233.083,111.677,191.777,70.37,141.004,70.37z M141.004,238.529   c-41.95,0-76.079-34.129-76.079-76.079c0-41.951,34.129-76.08,76.079-76.08c41.95,0,76.079,34.129,76.079,76.08   C217.083,204.4,182.955,238.529,141.004,238.529z" fill="#ffaa33"/>
	<path d="M165.136,45.34v-6.42h11.591c4.418,0,8-3.582,8-8V8c0-4.418-3.582-8-8-8h-71.441c-4.418,0-8,3.582-8,8v22.919   c0,4.418,3.582,8,8,8h11.596v6.418c-54.4,11.19-95.435,59.449-95.435,117.113c0,65.925,53.634,119.558,119.558,119.558   c65.924,0,119.558-53.633,119.558-119.558C260.562,104.79,219.532,56.533,165.136,45.34z M124.881,22.919h-11.596V16h55.441v6.919   h-11.591c-4.418,0-8,3.582-8,8v12.255c-2.688-0.181-5.398-0.282-8.132-0.282c-2.73,0-5.438,0.101-8.123,0.282V30.919   C132.881,26.501,129.299,22.919,124.881,22.919z M141.004,266.009c-57.102,0-103.558-46.456-103.558-103.558   c0-57.103,46.456-103.559,103.558-103.559c57.102,0,103.558,46.456,103.558,103.559   C244.562,219.553,198.106,266.009,141.004,266.009z" fill="#ffaa33"/>
</g>
</svg>
