<?xml version="1.0" encoding="iso-8859-1"?>
<!DOCTYPE svg PUBLIC "-//W3C//DTD SVG 1.1//EN" "http://www.w3.org/Graphics/SVG/1.1/DTD/svg11.dtd">
<svg xmlns="http://www.w3.org/2000/svg" version="1.1" id="Capa_1" x="0px" y="0px" viewBox="0 0 309.042 309.042"
	 style="enable-background:new 0 0 309.042 309.042;" xml:space="preserve" width="512px" height="512px">
<g>
	<path d="M301.042,287.639H8c-4.418,0-8-3.582-8-8v-27.025c0-2.198,0.904-4.3,2.501-5.811l36.733-34.76V47.121   c0-14.181,10.586-25.718,23.599-25.718H246.21c13.012,0,23.598,11.537,23.598,25.718v164.922l36.733,34.76   c1.597,1.511,2.501,3.612,2.501,5.811v27.025C309.042,284.058,305.46,287.639,301.042,287.639z M16,271.639h277.042v-15.582   l-36.733-34.76c-1.597-1.511-2.501-3.612-2.501-5.811V47.121c0-5.268-3.479-9.718-7.598-9.718H62.833   c-4.119,0-7.599,4.45-7.599,9.718v168.366c0,2.198-0.904,4.3-2.501,5.811L16,256.058V271.639z" fill="#ffaa33"/>
	<path d="M240.188,192.036c0,4.548-1.649,8.236-4.92,8.236h-57.761c-3.27,0-4.919-3.688-4.919-8.236l0,0   c0-4.548,1.649-8.235,4.919-8.235h57.761C238.538,183.801,240.188,187.488,240.188,192.036L240.188,192.036z" fill="#ffaa33"/>
	<g>
		<path d="M229.267,51.134H79.776c-7.137,0-11.923,4.896-11.923,10.935v94.799c0,6.039,4.786,10.934,11.923,10.934h149.49    c7.136,0,11.921-4.895,11.921-10.934V62.069C241.188,56.03,236.402,51.134,229.267,51.134z M139.956,80.107H88.622    c-4.418,0-8-3.581-8-8c0-4.418,3.582-8,8-8h51.334c4.418,0,8,3.582,8,8C147.956,76.525,144.374,80.107,139.956,80.107z" fill="#ffaa33"/>
	</g>
</g>
</svg>
