<?xml version="1.0" encoding="iso-8859-1"?>
<!DOCTYPE svg PUBLIC "-//W3C//DTD SVG 1.1//EN" "http://www.w3.org/Graphics/SVG/1.1/DTD/svg11.dtd">
<svg xmlns="http://www.w3.org/2000/svg" version="1.1" id="Capa_1" x="0px" y="0px" viewBox="0 0 280.605 280.605"
	 style="enable-background:new 0 0 280.605 280.605;" xml:space="preserve" width="512px" height="512px">
<g>
	<path d="M32.992,223.436c4.418,0,8-3.581,8-8V90.214c0-4.419-3.582-8-8-8s-8,3.581-8,8v125.223   C24.992,219.855,28.574,223.436,32.992,223.436z" fill="#ffaa33"/>
	<path d="M92.461,129.777h144.554c4.418,0,8-3.581,8-8c0-4.418-3.582-8-8-8H92.461c-4.418,0-8,3.582-8,8   C84.461,126.195,88.043,129.777,92.461,129.777z" fill="#ffaa33"/>
	<path d="M165.435,137.656H92.461c-4.418,0-8,3.581-8,8c0,4.418,3.582,8,8,8h72.974c4.418,0,8-3.582,8-8   C173.435,141.237,169.853,137.656,165.435,137.656z" fill="#ffaa33"/>
	<path d="M165.435,161.535H92.461c-4.418,0-8,3.581-8,8c0,4.418,3.582,8,8,8h72.974c4.418,0,8-3.582,8-8   C173.435,165.116,169.853,161.535,165.435,161.535z" fill="#ffaa33"/>
	<path d="M165.435,185.414H92.461c-4.418,0-8,3.582-8,8c0,4.418,3.582,8,8,8h72.974c4.418,0,8-3.582,8-8   C173.435,188.995,169.853,185.414,165.435,185.414z" fill="#ffaa33"/>
	<path d="M275.366,27.129c-3.151-1.158-6.684-0.228-8.855,2.327L236.835,64.36L207.16,29.456c-1.52-1.788-3.748-2.818-6.095-2.818   c-2.347,0-4.575,1.03-6.095,2.818L165.295,64.36l-29.676-34.904c-1.52-1.788-3.748-2.818-6.095-2.818   c-2.347,0-4.575,1.03-6.095,2.818L93.755,64.36L64.079,29.456c-2.172-2.556-5.708-3.483-8.856-2.327   c-3.147,1.157-5.239,4.155-5.239,7.509v181.936c0,11.797-7.623,21.395-16.992,21.395S16,228.371,16,216.573V64.202   c0-4.418-3.582-8-8-8s-8,3.582-8,8v152.372c0,20.62,14.8,37.395,32.992,37.395h214.621c18.192,0,32.992-16.775,32.992-37.395   V34.637C280.605,31.284,278.514,28.286,275.366,27.129z M247.613,237.969H60.027c3.749-6.067,5.957-13.442,5.957-21.395V56.398   L87.66,81.892c1.52,1.788,3.748,2.818,6.095,2.818c2.347,0,4.575-1.03,6.095-2.818l29.675-34.904L159.2,81.892   c1.52,1.788,3.748,2.818,6.095,2.818c2.347,0,4.575-1.03,6.095-2.818l29.676-34.904l29.675,34.904   c1.52,1.788,3.748,2.818,6.095,2.818c2.347,0,4.575-1.03,6.095-2.818l21.676-25.495v160.176   C264.605,228.371,256.982,237.969,247.613,237.969z" fill="#ffaa33"/>
	<path d="M237.64,137.656h-50.828c-4.418,0-8,3.581-8,8v50.828c0,4.418,3.582,8,8,8h50.828c4.418,0,8-3.582,8-8v-50.828   C245.64,141.237,242.058,137.656,237.64,137.656z" fill="#ffaa33"/>
</g>
</svg>
