<?xml version="1.0" encoding="iso-8859-1"?>
<!-- Generator: Adobe Illustrator 17.1.0, SVG Export Plug-In . SVG Version: 6.00 Build 0)  -->
<!DOCTYPE svg PUBLIC "-//W3C//DTD SVG 1.1//EN" "http://www.w3.org/Graphics/SVG/1.1/DTD/svg11.dtd">
<svg version="1.1" id="Capa_1" xmlns="http://www.w3.org/2000/svg" x="0px" y="0px"
	 viewBox="0 0 269.664 269.664" style="enable-background:new 0 0 269.664 269.664;" xml:space="preserve">
<g>
	<path d="M214.127,243.14c0,5.803-4.722,10.524-10.524,10.524H66.061c-5.803,0-10.524-4.721-10.524-10.524V59.721h-16V243.14
		c0,14.626,11.899,26.524,26.524,26.524h137.541c14.626,0,26.524-11.898,26.524-26.524V59.721h-16V243.14z"/>
	<path d="M80.957,90.876h107.748c4.418,0,8-3.582,8-8c0-4.419-3.582-8-8-8H80.957c-4.418,0-8,3.581-8,8
		C72.957,87.294,76.539,90.876,80.957,90.876z"/>
	<path d="M80.957,119.473h85.519c4.418,0,8-3.582,8-8c0-4.419-3.582-8-8-8H80.957c-4.418,0-8,3.581-8,8
		C72.957,115.892,76.539,119.473,80.957,119.473z"/>
	<path d="M80.957,148.07h107.748c4.418,0,8-3.581,8-8c0-4.418-3.582-8-8-8H80.957c-4.418,0-8,3.582-8,8
		C72.957,144.488,76.539,148.07,80.957,148.07z"/>
	<path d="M80.957,176.667h85.519c4.418,0,8-3.581,8-8s-3.582-8-8-8H80.957c-4.418,0-8,3.581-8,8S76.539,176.667,80.957,176.667z"/>
	<path d="M80.957,205.264h92.929c4.418,0,8-3.582,8-8c0-4.419-3.582-8-8-8H80.957c-4.418,0-8,3.581-8,8
		C72.957,201.682,76.539,205.264,80.957,205.264z"/>
	<path d="M80.957,233.86h54.029c4.418,0,8-3.582,8-8c0-4.418-3.582-8-8-8H80.957c-4.418,0-8,3.582-8,8
		C72.957,230.279,76.539,233.86,80.957,233.86z"/>
	<path d="M235.789,18.013h-44.077c0-0.041,0.006-0.081,0.006-0.122C191.718,9.115,179.603,0,170.827,0H98.838
		c-8.776,0-20.892,9.115-20.892,17.891c0,0.041,0.006,0.081,0.006,0.122H33.875c-3.057,0-5.557,2.501-5.557,5.557v19.942
		c0,3.056,2.5,5.557,5.557,5.557h201.914c3.057,0,5.558-2.501,5.558-5.557V23.57C241.346,20.514,238.845,18.013,235.789,18.013z
		 M134.988,30.914c-4.944,0-8.952-4.008-8.952-8.951c0-4.943,4.008-8.951,8.952-8.951c4.942,0,8.95,4.008,8.95,8.951
		C143.938,26.906,139.93,30.914,134.988,30.914z"/>
</g>
<g>
</g>
<g>
</g>
<g>
</g>
<g>
</g>
<g>
</g>
<g>
</g>
<g>
</g>
<g>
</g>
<g>
</g>
<g>
</g>
<g>
</g>
<g>
</g>
<g>
</g>
<g>
</g>
<g>
</g>
</svg>
